<?xml version="1.0" encoding="UTF-8" standalone="no"?>
<!-- Created with Inkscape (http://www.inkscape.org/) -->

<svg
   width="48"
   height="48"
   viewBox="0 0 12.7 12.699999"
   version="1.1"
   id="svg5"
   sodipodi:docname="googile.svg"
   inkscape:version="1.2.2 (732a01da63, 2022-12-09)"
   xmlns:inkscape="http://www.inkscape.org/namespaces/inkscape"
   xmlns:sodipodi="http://sodipodi.sourceforge.net/DTD/sodipodi-0.dtd"
   xmlns="http://www.w3.org/2000/svg"
   xmlns:svg="http://www.w3.org/2000/svg">
  <sodipodi:namedview
     id="namedview7"
     pagecolor="#505050"
     bordercolor="#eeeeee"
     borderopacity="1"
     inkscape:showpageshadow="0"
     inkscape:pageopacity="0.07058824"
     inkscape:pagecheckerboard="0"
     inkscape:deskcolor="#505050"
     inkscape:document-units="mm"
     showgrid="false"
     inkscape:zoom="3.5376767"
     inkscape:cx="102.89239"
     inkscape:cy="94.694918"
     inkscape:window-width="1920"
     inkscape:window-height="1106"
     inkscape:window-x="-11"
     inkscape:window-y="-11"
     inkscape:window-maximized="1"
     inkscape:current-layer="layer1" />
  <defs
     id="defs2" />
  <g
     inkscape:label="Layer 1"
     inkscape:groupmode="layer"
     id="layer1">
    <g
       id="g15312"
       transform="matrix(0.32685902,0,0,0.3699185,-12.249536,-4.286296)">
      <path
         d="m 46.965716,27.925392 v 3.106051 H 46.456428 L 46.106,30.212657 q -0.556012,0.912235 -1.724105,0.912235 -1.303591,0 -1.948377,-0.943385 -0.640115,-0.943385 -0.640115,-2.184915 0,-1.31273 0.714872,-2.220516 0.719545,-0.912235 2.009119,-0.912235 0.962509,0 1.583933,0.533991 0.621425,0.529542 0.784958,1.32163 l -0.999887,0.169097 q -0.280341,-1.112483 -1.34097,-1.112483 -0.677493,0 -1.107351,0.525092 -0.425186,0.525093 -0.425186,1.615325 0,2.300613 1.513848,2.300613 0.588719,0 0.971853,-0.387143 0.387806,-0.387145 0.387806,-1.023484 H 44.56879 v -0.881087 z"
         id="path7895"
         style="font-size:12.7781px;font-family:'Franklin Gothic Medium';-inkscape-font-specification:'Franklin Gothic Medium, ';fill:#0000ff;stroke:none;stroke-width:0.389105" />
      <path
         d="m 50.054152,31.124892 q -1.046611,0 -1.59795,-0.716439 -0.55134,-0.716439 -0.55134,-1.642024 0,-0.996783 0.607408,-1.659824 0.612081,-0.663039 1.611968,-0.663039 0.94849,0 1.555899,0.64524 0.61208,0.645239 0.61208,1.677623 0,1.063534 -0.635442,1.713223 -0.630771,0.64524 -1.602623,0.64524 z m 0.03737,-0.836587 q 1.074645,0 1.074645,-1.526326 0,-0.689739 -0.25698,-1.085783 -0.25698,-0.400493 -0.78963,-0.400493 -0.55134,0 -0.817666,0.413843 -0.266324,0.409394 -0.266324,1.090233 0,0.734239 0.280342,1.121383 0.285015,0.387143 0.775613,0.387143 z"
         id="path7897"
         style="font-size:12.7781px;font-family:'Franklin Gothic Medium';-inkscape-font-specification:'Franklin Gothic Medium, ';fill:#ff0000;stroke:none;stroke-width:0.389105" />
      <path
         d="m 55.114328,31.124892 q -1.04661,0 -1.597951,-0.716439 -0.551339,-0.716439 -0.551339,-1.642024 0,-0.996783 0.607408,-1.659824 0.612081,-0.663039 1.611968,-0.663039 0.948491,0 1.555899,0.64524 0.61208,0.645239 0.61208,1.677623 0,1.063534 -0.635442,1.713223 -0.63077,0.64524 -1.602623,0.64524 z m 0.03737,-0.836587 q 1.074644,0 1.074644,-1.526326 0,-0.689739 -0.25698,-1.085783 -0.25698,-0.400493 -0.78963,-0.400493 -0.55134,0 -0.817665,0.413843 -0.266325,0.409394 -0.266325,1.090233 0,0.734239 0.280342,1.121383 0.285015,0.387143 0.775614,0.387143 z"
         id="path7899"
         style="font-size:12.7781px;font-family:'Franklin Gothic Medium';-inkscape-font-specification:'Franklin Gothic Medium, ';fill:#ffff00;stroke:none;stroke-width:0.389105" />
      <path
         d="m 62.632171,25.678178 v 0.778738 h -0.327065 q -0.214929,0 -0.378462,0.04895 -0.15886,0.04895 -0.313049,0.315944 0.560684,0.436093 0.560684,0.970085 0,0.596291 -0.527977,0.987884 -0.523306,0.391594 -1.387694,0.391594 -0.37379,0 -0.873733,-0.115698 -0.327066,0.142398 -0.327066,0.440543 0,0.164647 0.158861,0.302595 0.15886,0.137948 0.481254,0.137948 h 1.401711 q 0.719544,0 1.126041,0.355994 0.411168,0.351545 0.411168,0.876637 0,0.63634 -0.621425,1.054633 -0.616753,0.418293 -1.831569,0.418293 -2.284788,0 -2.284788,-1.21483 0,-0.600741 0.686838,-0.912236 -0.439203,-0.355994 -0.439203,-0.743138 0,-0.587391 0.752251,-0.934486 -0.654132,-0.378244 -0.654132,-1.041283 0,-0.560691 0.481255,-0.956734 0.481254,-0.396045 1.462451,-0.396045 0.448547,0 0.911113,0.09345 0.214928,-0.858837 1.135385,-0.858837 z m -2.420287,2.892455 q 0.869061,0 0.869061,-0.778738 0,-0.298145 -0.219601,-0.502842 -0.214929,-0.204698 -0.63077,-0.204698 -0.420514,0 -0.654132,0.213597 -0.228946,0.213597 -0.228946,0.533993 0,0.329294 0.228946,0.533991 0.228947,0.204697 0.635442,0.204697 z m -1.168092,2.216065 q -0.228946,0.200246 -0.228946,0.387143 0,0.307045 0.383134,0.538441 0.383134,0.235847 1.219489,0.235847 1.228833,0 1.228833,-0.60074 0,-0.222497 -0.214929,-0.333745 -0.214929,-0.115698 -0.4906,-0.115698 H 59.81006 q -0.322393,0 -0.766268,-0.111248 z"
         id="path7901"
         style="font-size:12.7781px;font-family:'Franklin Gothic Medium';-inkscape-font-specification:'Franklin Gothic Medium, ';fill:#0000ff;stroke:none;stroke-width:0.389105" />
      <path
         d="m 64.346932,26.011922 h -1.0653 V 24.95729 h 1.0653 z m 0,5.019521 h -1.0653 v -4.494428 h 1.0653 z"
         id="path7903"
         style="font-size:12.7781px;font-family:'Franklin Gothic Medium';-inkscape-font-specification:'Franklin Gothic Medium, ';fill:#800000;stroke:none;stroke-width:0.389105" />
      <path
         d="m 66.68779,31.031443 h -1.0653 V 24.95729 h 1.0653 z"
         id="path7905"
         style="font-size:12.7781px;font-family:'Franklin Gothic Medium';-inkscape-font-specification:'Franklin Gothic Medium, ';fill:#008000;stroke:none;stroke-width:0.389105" />
      <path
         d="m 70.96768,29.598567 0.962509,0.124597 q -0.186895,0.609641 -0.72889,1.005684 -0.541995,0.396044 -1.35966,0.396044 -0.981198,0 -1.57926,-0.62744 -0.598064,-0.62744 -0.598064,-1.699873 0,-1.019034 0.602735,-1.686523 0.602737,-0.66749 1.635331,-0.66749 1.009231,0 1.56057,0.65859 0.55134,0.658589 0.55134,1.690973 l -0.0046,0.115698 h -3.237953 q 0,0.458343 0.08877,0.734239 0.09345,0.275895 0.364445,0.480592 0.270998,0.204697 0.677494,0.204697 0.78963,0 1.065301,-0.729788 z m -0.06541,-1.343879 q -0.0046,-0.485042 -0.308376,-0.792089 -0.299032,-0.307044 -0.742907,-0.307044 -0.439203,0 -0.733562,0.289245 -0.294359,0.284796 -0.345756,0.809888 z"
         id="path7907"
         style="font-size:12.7781px;font-family:'Franklin Gothic Medium';-inkscape-font-specification:'Franklin Gothic Medium, ';fill:#ff0000;stroke:none;stroke-width:0.389105" />
    </g>
  </g>
</svg>
